<svg width="80" height="80" viewBox="0 0 80 80" fill="none" xmlns="http://www.w3.org/2000/svg">
<path d="M19.9964 16.6829C12.633 16.6829 6.66302 22.6529 6.66302 30.0163V50.0163C6.66302 57.3796 12.633 63.3496 19.9964 63.3496H43.3297C50.693 63.3496 56.663 57.3796 56.663 50.0163V48.1429L67.5997 59.0796C69.6997 61.1796 73.3297 59.6529 73.3297 56.6829V23.3496C73.3297 21.8663 72.4063 20.7063 71.2463 20.223C70.0863 19.743 68.6497 19.9029 67.5997 20.9529C66.233 22.3196 61.113 27.4396 56.663 31.8896V30.0163C56.663 22.6529 50.693 16.6829 43.3297 16.6829H19.9964ZM19.9964 23.3496H43.3297C47.013 23.3496 49.9963 26.3329 49.9963 30.0163V40.0163V50.0163C49.9963 53.6996 47.013 56.6829 43.3297 56.6829H19.9964C16.313 56.6829 13.3297 53.6996 13.3297 50.0163V30.0163C13.3297 26.3329 16.313 23.3496 19.9964 23.3496ZM66.663 31.4762V48.5563L58.123 40.0163C60.503 37.6329 63.1863 34.9495 66.663 31.4762Z" fill="#8C5BF4"/>
</svg>
