<svg width="1203" height="1205" xmlns="http://www.w3.org/2000/svg" xmlns:xlink="http://www.w3.org/1999/xlink" xml:space="preserve" overflow="hidden"><defs><clipPath id="clip0"><rect x="1447" y="635" width="1203" height="1205"/></clipPath><linearGradient x1="2048.5" y1="635" x2="2048.5" y2="1840" gradientUnits="userSpaceOnUse" spreadMethod="reflect" id="fill1"><stop offset="0" stop-color="#4C1191"/><stop offset="0.39" stop-color="#4C1191"/><stop offset="0.79" stop-color="#310567"/><stop offset="1" stop-color="#310567"/></linearGradient><linearGradient x1="1998" y1="731" x2="1998" y2="1807" gradientUnits="userSpaceOnUse" spreadMethod="reflect" id="fill2"><stop offset="0" stop-color="#B900B6"/><stop offset="0.22" stop-color="#B900B6"/><stop offset="0.58" stop-color="#FF12C0"/><stop offset="1" stop-color="#F600BD"/></linearGradient><linearGradient x1="2149" y1="896" x2="2149" y2="1404" gradientUnits="userSpaceOnUse" spreadMethod="reflect" id="fill3"><stop offset="0" stop-color="#4C1191"/><stop offset="0.39" stop-color="#4C1191"/><stop offset="0.79" stop-color="#310567"/><stop offset="1" stop-color="#310567"/></linearGradient></defs><g clip-path="url(#clip0)" transform="translate(-1447 -635)"><path d="M1447 835.504C1447 724.769 1536.77 635 1647.5 635L2449.5 635C2560.23 635 2650 724.769 2650 835.504L2650 1639.5C2650 1750.23 2560.23 1840 2449.5 1840L1647.5 1840C1536.77 1840 1447 1750.23 1447 1639.5Z" fill="url(#fill1)" fill-rule="evenodd"/><path d="M2001.07 896 2002 896.02C2001.98 922.317 2001.99 948.614 2002 974.92L2001.05 975C2001.02 948.663 2000.95 922.327 2001.07 896Z" fill="#156082" fill-rule="evenodd"/><path d="M2061 896.293C2123.32 895.73 2185.66 896.173 2247.99 896.062L2248 896.957C2192.4 896.994 2136.82 896.929 2081.22 896.984 2074.47 896.901 2067.67 897.316 2061 896.293Z" fill="#156082" fill-rule="evenodd"/><path d="M2089.22 1325.05C2161.15 1324.97 2233.07 1325 2305 1325.04L2304.96 1326C2232.97 1325.94 2160.98 1326.07 2089 1325.93L2089.22 1325.05Z" fill="#156082" fill-rule="evenodd"/><path d="M2017.03 745.905C2054.11 735.525 2092.68 731.521 2131.11 731 2140.86 731.951 2150.64 731.961 2160.42 732.702 2220 737.006 2278.7 754.143 2330.92 783.303 2343.34 791.711 2357.45 797.477 2368.98 807.247 2419.95 842.432 2461.99 889.85 2492.98 943.373 2514.72 981.161 2530.78 1022.27 2539.58 1065.01 2546.85 1099.3 2550.55 1134.58 2548.38 1169.58 2547.67 1231.68 2530.58 1293.18 2501.28 1347.83 2494.48 1359.1 2487.66 1370.36 2481.27 1381.85 2470.34 1395.91 2461.25 1411.5 2448.58 1424.13 2437.51 1437.39 2425.26 1449.59 2411.98 1460.63 2399.63 1472.89 2384.9 1482.25 2371.19 1492.83 2319.72 1527.66 2261.32 1552.79 2200.01 1563.66 2164.74 1569.86 2128.76 1569.76 2093.1 1567.71 2053.84 1563.97 2014.97 1554.93 1978.64 1539.48 1959.39 1531.98 1941.58 1521.43 1923.71 1511.22 1914.47 1505.59 1906.26 1498.47 1897.03 1492.83 1856.72 1462 1823.44 1422.53 1798.1 1378.64 1791.2 1366.92 1785.4 1354.58 1778.9 1342.63 1778.28 1342.71 1777.04 1342.86 1776.42 1342.93 1770.18 1352.45 1766.5 1363.41 1760.47 1373.05 1708.25 1474.28 1656.01 1575.46 1603.46 1676.54 1584.15 1714.71 1563.75 1752.31 1544.54 1790.53 1542.12 1796.09 1538.28 1801.01 1536.86 1807 1514.36 1792.05 1495 1772.53 1479.98 1750.07 1461.06 1721.71 1450.2 1688.4 1447 1654.56L1447 1568.38C1450.25 1566.02 1450.85 1561.45 1453.42 1558.41 1468.96 1527.16 1485.33 1496.3 1501.48 1465.35 1520.92 1426.36 1541.96 1388.18 1561.48 1349.23 1620.23 1236.37 1678.39 1123.22 1737.07 1010.33 1759.45 968.479 1782.19 926.656 1809.87 888.008 1835.88 853.023 1867.1 821.511 1904.08 798.128 1938.6 774.804 1976.82 756.826 2017.03 745.905M2001.13 895.215C2001.01 921.572 2001.08 947.938 2001.11 974.305L2002.09 974.224C2071.76 974.385 2141.45 974.214 2211.13 974.305 2210.32 975.746 2208.7 978.629 2207.89 980.07 2137.26 1092.24 2066.61 1204.4 1996.17 1316.69 1984.84 1336.08 1981.94 1362.41 1995.1 1381.66 2006.58 1397.05 2026.61 1403.07 2045.08 1403.7 2131.74 1403.72 2218.41 1403.75 2305.08 1403.69 2305.18 1377.67 2305.14 1351.65 2305.1 1325.65L2305.14 1324.67C2233.15 1324.63 2161.17 1324.6 2089.18 1324.68 2089.31 1324.33 2089.59 1323.65 2089.74 1323.29 2160.4 1211.12 2230.93 1098.84 2301.41 986.547 2311.03 969.209 2316.08 948.048 2308.5 928.919 2305.32 923.323 2303.35 916.236 2297.56 912.813 2297.18 911.301 2296.63 909.89 2295.15 909.199 2282.5 897.928 2264.37 895.926 2248.12 896.196L2248.11 895.225C2185.69 895.345 2123.25 894.865 2060.84 895.475 2041.28 894.825 2021.67 895.355 2002.09 895.235L2001.13 895.215Z" fill="url(#fill2)" fill-rule="evenodd"/><path d="M2001.71 896.091C2021.3 896.211 2040.92 895.681 2060.5 896.331 2067.19 897.441 2074 896.991 2080.77 897.081 2136.48 897.021 2192.19 897.091 2247.91 897.051 2264.17 896.781 2282.32 898.78 2294.97 910.039 2296.45 910.729 2297 912.139 2297.38 913.649 2303.17 917.068 2305.15 924.147 2308.33 929.737 2315.91 948.844 2310.86 969.981 2301.23 987.299 2230.7 1099.46 2160.12 1211.62 2089.42 1323.66 2089.27 1324.02 2088.99 1324.69 2088.85 1325.04L2088.63 1325.94C2160.72 1326.08 2232.83 1325.95 2304.93 1326.01 2304.97 1351.99 2305.01 1377.98 2304.91 1403.96 2218.18 1404.02 2131.45 1403.99 2044.73 1403.97 2026.24 1403.35 2006.21 1397.34 1994.72 1381.97 1981.54 1362.74 1984.45 1336.43 1995.79 1317.07 2066.28 1204.9 2136.97 1092.88 2207.65 980.83 2208.46 979.39 2210.09 976.51 2210.9 975.071 2141.17 974.981 2071.43 975.151 2001.71 974.991 2001.7 948.684 2001.69 922.387 2001.71 896.091Z" fill="url(#fill3)" fill-rule="evenodd"/></g></svg>