<svg width="24" height="16" viewBox="0 0 24 16" fill="none" xmlns="http://www.w3.org/2000/svg">
<path fill-rule="evenodd" clip-rule="evenodd" d="M16.522 4.41826C17.5057 3.60127 18.6033 3.29043 19.6558 3.369C20.7786 3.45283 21.8177 3.97671 22.5936 4.73766C23.3696 5.49866 23.9027 6.51653 23.988 7.61506C24.0741 8.72358 23.7013 9.88462 22.7182 10.9036C22.6283 10.9974 22.5364 11.09 22.4425 11.1815C17.9837 15.5537 12.0606 15.5652 12.0001 15.5652H11.9997C11.9695 15.5652 6.0277 15.565 1.55722 11.1809L1.55625 11.1799C1.46396 11.0889 1.37307 10.9972 1.28356 10.905L1.28283 10.9043C0.299298 9.88615 -0.0739204 8.72539 0.011917 7.61688C0.0969654 6.51855 0.629703 5.50055 1.40545 4.73928C2.18116 3.97807 3.22008 3.45377 4.34306 3.36959C5.39557 3.29069 6.49333 3.60115 7.47757 4.41775C7.58341 3.15825 8.13479 2.178 8.93518 1.50409C9.78883 0.785333 10.9013 0.434814 11.9998 0.434814C13.0983 0.434814 14.2107 0.785333 15.0644 1.50409C15.8649 2.17809 16.4163 3.15851 16.522 4.41826ZM12.2039 15.1219L12.2037 15.1164L12.2041 15.1164L12.2039 15.1219ZM11.7957 15.1219L11.7955 15.1164L11.7959 15.1164L11.7957 15.1219ZM15.3497 9.05079C15.2277 9.05079 15.1855 9.22356 15.2633 9.31508C15.4011 9.47719 15.484 9.68574 15.484 9.91328C15.484 10.4296 15.0572 10.8481 14.5307 10.8481C14.0042 10.8481 13.5774 10.4296 13.5774 9.91328C13.5774 9.88565 13.5407 9.87193 13.5241 9.89431C13.3737 10.0968 13.2722 10.3242 13.2305 10.5629C13.207 10.6973 13.0956 10.8086 12.9556 10.8086H12.8783C12.6956 10.8086 12.5449 10.6634 12.5718 10.4874C12.7567 9.28117 13.9689 8.40632 15.3497 8.40632C16.7304 8.40632 17.9426 9.28117 18.1275 10.4874C18.1545 10.6634 18.0037 10.8086 17.821 10.8086C17.6383 10.8086 17.4936 10.6626 17.4539 10.4889C17.2732 9.69829 16.4354 9.05079 15.3497 9.05079ZM6.88466 9.91328C6.88466 9.87684 6.83651 9.8573 6.81385 9.88628C6.65312 10.092 6.54362 10.3249 6.49727 10.5703C6.4699 10.7154 6.34962 10.8358 6.19825 10.8358H6.14151C5.9588 10.8358 5.80807 10.6906 5.83501 10.5146C6.01978 9.30772 7.23214 8.43355 8.61287 8.43355C9.9936 8.43355 11.206 9.30772 11.3907 10.5146C11.4177 10.6906 11.2669 10.8358 11.0842 10.8358C10.9015 10.8358 10.7568 10.6899 10.7172 10.5161C10.5365 9.72504 9.69875 9.07802 8.61287 9.07802C8.51418 9.07802 8.47805 9.21391 8.54412 9.28532C8.69764 9.45127 8.79119 9.67156 8.79119 9.91328C8.79119 10.4296 8.3644 10.8481 7.83792 10.8481C7.31145 10.8481 6.88466 10.4296 6.88466 9.91328ZM13.0602 12.1677C13.1894 12.0418 13.3889 11.9806 13.5493 12.0659C13.7096 12.1513 13.7704 12.3494 13.6549 12.4872C13.2786 12.9362 12.6692 13.2207 11.9972 13.2207C11.3256 13.2207 10.7149 12.9392 10.3381 12.4868C10.2229 12.3487 10.2845 12.1507 10.4452 12.0659C10.6058 11.9812 10.8051 12.0431 10.934 12.1692C11.1824 12.4121 11.5594 12.5762 11.9972 12.5762C12.434 12.5762 12.8113 12.4104 13.0602 12.1677Z" fill="white"/>
</svg>
