<svg width="204" height="130" viewBox="0 0 204 130" fill="none" xmlns="http://www.w3.org/2000/svg">
<path fill-rule="evenodd" clip-rule="evenodd" d="M140.236 34.2127C148.585 27.1958 157.901 24.5261 166.835 25.201C176.365 25.9209 185.184 30.4204 191.77 36.956C198.357 43.492 202.881 52.2342 203.606 61.6691C204.336 71.19 201.172 81.1618 192.828 89.9136C192.064 90.7192 191.284 91.5148 190.488 92.3003C152.642 129.852 102.368 129.951 101.854 129.951H101.851C101.595 129.951 51.1619 129.949 13.2174 92.2951L13.2091 92.2868C12.4258 91.5047 11.6543 90.7177 10.8946 89.9256L10.8884 89.9192C2.54038 81.175 -0.627422 71.2055 0.101149 61.6848C0.823023 52.2515 5.3448 43.5082 11.9292 36.9699C18.5132 30.432 27.3314 25.929 36.8631 25.206C45.7966 24.5283 55.1141 27.1948 63.4682 34.2084C64.3665 23.3909 69.0465 14.9717 75.8401 9.1837C83.0857 3.0105 92.5278 0 101.852 0C111.176 0 120.618 3.0105 127.864 9.1837C134.658 14.9725 139.338 23.3931 140.236 34.2127Z" fill="white"/>
</svg>
