<svg width="270" height="270" viewBox="0 0 270 270" fill="none" xmlns="http://www.w3.org/2000/svg">
<g filter="url(#filter0_iii_615_4442)">
<path d="M220.967 32.9002C209.405 32.0393 197.359 35.3476 186.497 44.0463C186.175 44.3043 185.689 44.1002 185.647 43.6896C184.261 30.0333 178.142 19.3723 169.351 11.9899C159.755 3.9309 147.249 0.000732422 134.9 0.000732422C122.55 0.000732422 110.044 3.9309 100.448 11.9899C91.658 19.3714 85.5395 30.0307 84.1521 43.6847C84.1104 44.0952 83.6246 44.2992 83.3024 44.0415C72.4341 35.3466 60.3862 32.0423 48.824 32.9067C36.1996 33.8506 24.5202 39.7293 15.7999 48.2644C7.07901 56.8001 1.09007 68.2144 0.133969 80.5293C-0.831 92.9585 3.36465 105.973 14.4214 117.389L14.4295 117.397C15.4358 118.431 16.4576 119.459 17.4951 120.48L17.5061 120.491C22.8181 125.686 28.315 130.333 33.8987 134.489C34.1747 134.694 34.1747 135.108 33.8987 135.314C28.3159 139.468 22.8199 144.114 17.5087 149.308C16.4538 150.333 15.4209 151.372 14.4099 152.424C3.35827 163.849 -0.833217 176.867 0.134866 189.296C1.09421 201.614 7.08701 213.026 15.8106 221.559C24.5335 230.091 36.2143 235.965 48.8368 236.905C60.399 237.766 72.4447 234.458 83.3065 225.759C83.6287 225.501 84.1148 225.705 84.1565 226.116C85.5429 239.772 91.6618 250.433 100.453 257.815C110.049 265.874 122.555 269.805 134.904 269.805C147.254 269.805 159.76 265.874 169.356 257.815C178.146 250.434 184.264 239.775 185.652 226.121C185.694 225.71 186.179 225.506 186.502 225.764C197.37 234.459 209.418 237.763 220.98 236.899C233.604 235.955 245.284 230.076 254.004 221.541C262.725 213.005 268.714 201.591 269.67 189.276C270.635 176.847 266.439 163.832 255.383 152.416L255.374 152.408C254.368 151.374 253.346 150.347 252.309 149.326L252.298 149.315C246.986 144.119 241.489 139.472 235.905 135.317C235.629 135.111 235.629 134.697 235.905 134.492C241.488 130.337 246.984 125.692 252.295 120.498C253.35 119.472 254.383 118.433 255.394 117.382C266.446 105.956 270.637 92.9382 269.669 80.5089C268.71 68.1917 262.717 56.7789 253.993 48.2462C245.27 39.7141 233.59 33.8401 220.967 32.9002Z" fill="url(#paint0_radial_615_4442)"/>
</g>
<g opacity="0.35" filter="url(#filter1_i_615_4442)">
<path fill-rule="evenodd" clip-rule="evenodd" d="M185.648 43.6889C185.689 44.0995 186.175 44.3036 186.498 44.0456C197.359 35.3469 209.405 32.0386 220.967 32.8995C233.59 33.8394 245.271 39.7134 253.994 48.2455C262.717 56.7782 268.71 68.191 269.669 80.5082C270.637 92.9375 266.446 105.956 255.394 117.381C254.383 118.433 253.35 119.471 252.296 120.497C202.174 169.516 134.913 169.649 134.903 169.649C134.902 169.649 134.903 169.649 134.902 169.649H134.899C134.559 169.649 67.7626 169.647 17.5063 120.49L17.4953 120.479C16.4579 119.458 15.436 118.431 14.4298 117.397L14.4216 117.388C3.3649 105.973 -0.830756 92.9578 0.134213 80.5286C1.09031 68.2136 7.07926 56.7994 15.8001 48.2637C24.5204 39.7286 36.1998 33.8499 48.8242 32.906C60.3865 32.0415 72.4344 35.3459 83.3026 44.0408C83.6248 44.2985 84.1107 44.0944 84.1524 43.6839C85.5397 30.03 91.6582 19.3707 100.448 11.9892C110.045 3.93017 122.55 0 134.9 0C147.249 0 159.755 3.93017 169.352 11.9892C178.142 19.3716 184.261 30.0326 185.648 43.6889Z" fill="url(#paint1_radial_615_4442)" fill-opacity="0.01"/>
</g>
<g filter="url(#filter2_d_615_4442)">
<path d="M94.0228 122.64C89.5221 122.64 85.8469 126.297 85.8469 130.775V149.253C85.8469 153.731 89.5221 157.388 94.0228 157.388C98.5235 157.388 102.199 153.731 102.199 149.253V130.775C102.199 126.297 98.5431 122.64 94.0228 122.64Z" fill="#FFCDD6"/>
<path d="M94.0228 122.64C89.5221 122.64 85.8469 126.297 85.8469 130.775V149.253C85.8469 153.731 89.5221 157.388 94.0228 157.388C98.5235 157.388 102.199 153.731 102.199 149.253V130.775C102.199 126.297 98.5431 122.64 94.0228 122.64Z" fill="url(#paint2_radial_615_4442)" fill-opacity="0.75"/>
<path d="M144.906 140.574C142.846 141.145 137.678 142.305 134.906 142.305C131.857 142.305 126.53 141.026 124.907 140.574C122.768 139.984 120.55 140.259 118.65 141.341C116.729 142.423 115.363 144.174 114.769 146.279C114.175 148.384 114.452 150.608 115.541 152.496C116.63 154.405 118.392 155.762 120.511 156.333C120.847 156.431 128.946 158.654 134.906 158.654C140.866 158.654 148.965 156.431 149.302 156.333C153.678 155.132 156.252 150.627 155.044 146.26C153.836 141.912 149.302 139.354 144.906 140.554V140.574Z" fill="#FFCDD6"/>
<path d="M144.906 140.574C142.846 141.145 137.678 142.305 134.906 142.305C131.857 142.305 126.53 141.026 124.907 140.574C122.768 139.984 120.55 140.259 118.65 141.341C116.729 142.423 115.363 144.174 114.769 146.279C114.175 148.384 114.452 150.608 115.541 152.496C116.63 154.405 118.392 155.762 120.511 156.333C120.847 156.431 128.946 158.654 134.906 158.654C140.866 158.654 148.965 156.431 149.302 156.333C153.678 155.132 156.252 150.627 155.044 146.26C153.836 141.912 149.302 139.354 144.906 140.554V140.574Z" fill="url(#paint3_radial_615_4442)" fill-opacity="0.75"/>
<path d="M175.782 122.64C180.282 122.64 183.958 126.297 183.958 130.775V149.253C183.958 153.731 180.282 157.388 175.782 157.388C171.281 157.388 167.606 153.731 167.606 149.253V130.775C167.606 126.297 171.261 122.64 175.782 122.64Z" fill="#FFCDD6"/>
<path d="M175.782 122.64C180.282 122.64 183.958 126.297 183.958 130.775V149.253C183.958 153.731 180.282 157.388 175.782 157.388C171.281 157.388 167.606 153.731 167.606 149.253V130.775C167.606 126.297 171.261 122.64 175.782 122.64Z" fill="url(#paint4_radial_615_4442)" fill-opacity="0.75"/>
</g>
<defs>
<filter id="filter0_iii_615_4442" x="-10.2198" y="-8.17514" width="290.244" height="277.98" filterUnits="userSpaceOnUse" color-interpolation-filters="sRGB">
<feFlood flood-opacity="0" result="BackgroundImageFix"/>
<feBlend mode="normal" in="SourceGraphic" in2="BackgroundImageFix" result="shape"/>
<feColorMatrix in="SourceAlpha" type="matrix" values="0 0 0 0 0 0 0 0 0 0 0 0 0 0 0 0 0 0 127 0" result="hardAlpha"/>
<feOffset dy="-8.17588"/>
<feGaussianBlur stdDeviation="8.17588"/>
<feComposite in2="hardAlpha" operator="arithmetic" k2="-1" k3="1"/>
<feColorMatrix type="matrix" values="0 0 0 0 0.891667 0 0 0 0 0.0743056 0 0 0 0 0.319514 0 0 0 1 0"/>
<feBlend mode="normal" in2="shape" result="effect1_innerShadow_615_4442"/>
<feColorMatrix in="SourceAlpha" type="matrix" values="0 0 0 0 0 0 0 0 0 0 0 0 0 0 0 0 0 0 127 0" result="hardAlpha"/>
<feOffset dx="-10.2198"/>
<feGaussianBlur stdDeviation="6.13191"/>
<feComposite in2="hardAlpha" operator="arithmetic" k2="-1" k3="1"/>
<feColorMatrix type="matrix" values="0 0 0 0 0.890196 0 0 0 0 0.0745098 0 0 0 0 0.317647 0 0 0 0.25 0"/>
<feBlend mode="normal" in2="effect1_innerShadow_615_4442" result="effect2_innerShadow_615_4442"/>
<feColorMatrix in="SourceAlpha" type="matrix" values="0 0 0 0 0 0 0 0 0 0 0 0 0 0 0 0 0 0 127 0" result="hardAlpha"/>
<feOffset dx="10.2198"/>
<feGaussianBlur stdDeviation="6.13191"/>
<feComposite in2="hardAlpha" operator="arithmetic" k2="-1" k3="1"/>
<feColorMatrix type="matrix" values="0 0 0 0 0.890196 0 0 0 0 0.0745098 0 0 0 0 0.317647 0 0 0 0.25 0"/>
<feBlend mode="normal" in2="effect2_innerShadow_615_4442" result="effect3_innerShadow_615_4442"/>
</filter>
<filter id="filter1_i_615_4442" x="0.000244141" y="0" width="269.804" height="177.825" filterUnits="userSpaceOnUse" color-interpolation-filters="sRGB">
<feFlood flood-opacity="0" result="BackgroundImageFix"/>
<feBlend mode="normal" in="SourceGraphic" in2="BackgroundImageFix" result="shape"/>
<feColorMatrix in="SourceAlpha" type="matrix" values="0 0 0 0 0 0 0 0 0 0 0 0 0 0 0 0 0 0 127 0" result="hardAlpha"/>
<feOffset dy="8.17588"/>
<feGaussianBlur stdDeviation="4.08794"/>
<feComposite in2="hardAlpha" operator="arithmetic" k2="-1" k3="1"/>
<feColorMatrix type="matrix" values="0 0 0 0 1 0 0 0 0 0.904381 0 0 0 0 0.883333 0 0 0 1 0"/>
<feBlend mode="normal" in2="shape" result="effect1_innerShadow_615_4442"/>
</filter>
<filter id="filter2_d_615_4442" x="75.6271" y="116.508" width="118.55" height="56.4536" filterUnits="userSpaceOnUse" color-interpolation-filters="sRGB">
<feFlood flood-opacity="0" result="BackgroundImageFix"/>
<feColorMatrix in="SourceAlpha" type="matrix" values="0 0 0 0 0 0 0 0 0 0 0 0 0 0 0 0 0 0 127 0" result="hardAlpha"/>
<feOffset dy="4.08794"/>
<feGaussianBlur stdDeviation="5.10992"/>
<feComposite in2="hardAlpha" operator="out"/>
<feColorMatrix type="matrix" values="0 0 0 0 0.913725 0 0 0 0 0.113725 0 0 0 0 0.329412 0 0 0 1 0"/>
<feBlend mode="normal" in2="BackgroundImageFix" result="effect1_dropShadow_615_4442"/>
<feBlend mode="normal" in="SourceGraphic" in2="effect1_dropShadow_615_4442" result="shape"/>
</filter>
<radialGradient id="paint0_radial_615_4442" cx="0" cy="0" r="1" gradientUnits="userSpaceOnUse" gradientTransform="translate(134.902 269.805) rotate(-90) scale(231.991 231.991)">
<stop stop-color="#FB3A5D"/>
<stop offset="1" stop-color="#FF4B6C"/>
</radialGradient>
<radialGradient id="paint1_radial_615_4442" cx="0" cy="0" r="1" gradientUnits="userSpaceOnUse" gradientTransform="translate(134.902 169.649) rotate(-90) scale(145.873 231.991)">
<stop stop-color="#FF6B17"/>
<stop offset="1" stop-color="#FF6B17"/>
</radialGradient>
<radialGradient id="paint2_radial_615_4442" cx="0" cy="0" r="1" gradientUnits="userSpaceOnUse" gradientTransform="translate(94.0228 134.373) rotate(90) scale(23.0151 15.3381)">
<stop stop-color="white"/>
<stop offset="1" stop-color="white" stop-opacity="0"/>
</radialGradient>
<radialGradient id="paint3_radial_615_4442" cx="0" cy="0" r="1" gradientUnits="userSpaceOnUse" gradientTransform="translate(134.902 146.47) rotate(90) scale(12.1844 38.3453)">
<stop stop-color="white"/>
<stop offset="1" stop-color="white" stop-opacity="0"/>
</radialGradient>
<radialGradient id="paint4_radial_615_4442" cx="0" cy="0" r="1" gradientUnits="userSpaceOnUse" gradientTransform="translate(175.782 134.373) rotate(90) scale(23.0151 15.3381)">
<stop stop-color="white"/>
<stop offset="1" stop-color="white" stop-opacity="0"/>
</radialGradient>
</defs>
</svg>
