<svg width="350" height="350" viewBox="0 0 350 350" fill="none" xmlns="http://www.w3.org/2000/svg">
<mask id="mask0_206_58" style="mask-type:alpha" maskUnits="userSpaceOnUse" x="0" y="0" width="350" height="350">
<path d="M151.86 161.438C147.365 168.996 77.2467 170.266 38.9938 148.828C0.740797 127.39 19.3256 61.8415 58.1255 44.6293C96.9254 27.4171 156.355 153.881 151.86 161.438Z" fill="#B99FE4"/>
<path d="M151.329 187.672C155.824 195.23 121.899 254.808 83.6457 276.246C45.3927 297.684 -3.79578 249.287 0.247803 208.065C4.2914 166.842 146.834 180.114 151.329 187.672Z" fill="#00B0FF"/>
<path d="M174.469 201.234C183.46 201.234 219.651 259.543 219.651 302.419C219.651 345.294 151.878 362.446 117.122 338.435C82.3657 314.425 165.479 201.233 174.469 201.234Z" fill="#7AC74D"/>
<path d="M198.14 188.567C202.635 181.008 272.754 179.739 311.006 201.177C349.259 222.615 330.675 288.163 291.875 305.375C253.074 322.587 193.645 196.124 198.14 188.567Z" fill="#FABA2C"/>
<path d="M198.671 162.328C194.176 154.77 228.101 95.1917 266.354 73.7532C304.608 52.3153 353.796 100.713 349.753 141.935C345.709 183.158 203.166 169.886 198.671 162.328Z" fill="#FF8353"/>
<path d="M175.53 148.766C166.539 148.766 130.348 90.4571 130.348 47.5812C130.348 4.70521 198.121 -12.4459 232.877 11.5647C267.634 35.5753 184.52 148.767 175.53 148.766Z" fill="#FF575B"/>
</mask>
<g mask="url(#mask0_206_58)">
<mask id="mask1_206_58" style="mask-type:alpha" maskUnits="userSpaceOnUse" x="0" y="0" width="350" height="350">
<rect y="350" width="350" height="350" transform="rotate(-90 0 350)" fill="#C4C4C4"/>
</mask>
<g mask="url(#mask1_206_58)">
<rect y="349.417" width="58.3333" height="350" transform="rotate(-90 0 349.417)" fill="#963D97"/>
<rect y="291.083" width="58.3333" height="350" transform="rotate(-90 0 291.083)" fill="#009DDC"/>
<rect y="232.75" width="58.3333" height="350" transform="rotate(-90 0 232.75)" fill="#61BB46"/>
<rect y="174.417" width="58.3333" height="350" transform="rotate(-90 0 174.417)" fill="#FDB827"/>
<rect y="116.667" width="58.3333" height="350" transform="rotate(-90 0 116.667)" fill="#F5821F"/>
<rect y="58.3333" width="58.3333" height="350" transform="rotate(-90 0 58.3333)" fill="#E03A3E"/>
</g>
</g>
</svg>
