<svg width="21" height="20" viewBox="0 0 21 20" fill="none" xmlns="http://www.w3.org/2000/svg">
<path d="M10.4998 19.8429C11.0149 19.8426 11.5187 19.6839 11.9501 19.3861C12.3816 19.0883 12.7219 18.6643 12.9299 18.1656C12.9539 18.1102 12.9643 18.0494 12.96 17.9886C12.9558 17.9279 12.937 17.8693 12.9055 17.8183C12.874 17.7674 12.8308 17.7257 12.7799 17.6973C12.7291 17.6688 12.6722 17.6545 12.6147 17.6556H8.38499C8.32754 17.6546 8.27079 17.6691 8.22004 17.6976C8.16929 17.7261 8.1262 17.7678 8.09479 17.8187C8.06339 17.8697 8.0447 17.9282 8.04047 17.9889C8.03624 18.0495 8.04661 18.1103 8.07061 18.1656C8.27851 18.6642 8.61876 19.0881 9.05001 19.3859C9.48126 19.6836 9.98494 19.8424 10.4998 19.8429Z" fill="url(#paint0_linear_9950_25732)"/>
<path d="M17.2932 14.7991C16.948 14.7991 16.617 14.6629 16.3729 14.4205C16.1288 14.178 15.9917 13.8492 15.9917 13.5064V8.80998C15.9915 7.59893 15.5848 6.42252 14.8361 5.46673C14.0873 4.51094 13.0392 3.83031 11.8574 3.53245C11.814 3.20321 11.6513 2.90096 11.3997 2.68228C11.1482 2.46361 10.825 2.34352 10.4907 2.34449C10.1564 2.34546 9.8339 2.46743 9.58363 2.68757C9.33335 2.9077 9.17244 3.2109 9.13103 3.54039C8.07704 3.81404 7.12893 4.39315 6.40751 5.20394C5.68608 6.01473 5.224 7.0205 5.08013 8.09308C5.08013 8.12571 5.07126 8.15745 5.06771 8.19008C5.06416 8.2227 5.05794 8.27826 5.05439 8.32235C5.05084 8.36644 5.04729 8.41052 5.04373 8.45373C5.04018 8.49694 5.0393 8.52692 5.03752 8.56396C5.03752 8.63891 5.0322 8.71298 5.03131 8.78881V13.5055C5.03132 13.8467 4.89554 14.174 4.65357 14.4162C4.41161 14.6583 4.08308 14.7957 3.7396 14.7982C3.65893 14.7973 3.57885 14.8121 3.50396 14.842C3.42907 14.8718 3.36082 14.9159 3.30311 14.9719C3.2454 15.028 3.19937 15.0947 3.16764 15.1684C3.1359 15.2421 3.11909 15.3212 3.11816 15.4014V15.4067C3.11816 15.568 3.1827 15.7228 3.29758 15.8369C3.41246 15.951 3.56826 16.0151 3.73072 16.0151H17.2932C17.4515 16.0091 17.6013 15.9424 17.7112 15.8291C17.821 15.7157 17.8824 15.5645 17.8824 15.4071C17.8824 15.2497 17.821 15.0985 17.7112 14.9851C17.6013 14.8718 17.4515 14.8051 17.2932 14.7991Z" fill="url(#paint1_linear_9950_25732)"/>
<path d="M14.3105 2.92985C15.0833 3.0846 15.7823 3.45573 16.3075 3.99026C16.8327 4.52478 17.1573 5.19537 17.2351 5.90629C17.2387 5.94465 17.2508 5.98196 17.2706 6.01608C17.2904 6.05019 17.3174 6.08043 17.3502 6.10504C17.383 6.12964 17.4209 6.14813 17.4617 6.15943C17.5025 6.17073 17.5454 6.17462 17.5878 6.17087C17.6734 6.16349 17.7524 6.12608 17.8077 6.06669C17.835 6.03712 17.8555 6.00297 17.8681 5.96622C17.8806 5.92947 17.885 5.89084 17.881 5.85255C17.7963 5.01492 17.4174 4.22358 16.7995 3.59378C16.1817 2.96398 15.3572 2.52862 14.4461 2.3511C14.4238 2.3469 14.4011 2.34469 14.3783 2.34448C14.2983 2.34465 14.2212 2.37149 14.1618 2.41983C14.1024 2.46817 14.0649 2.53462 14.0565 2.60639C14.0481 2.67817 14.0694 2.75022 14.1162 2.80871C14.1631 2.86719 14.2323 2.90798 14.3105 2.92324V2.92985Z" fill="url(#paint2_linear_9950_25732)"/>
<path d="M14.858 0.79061C16.0638 1.05429 17.1545 1.68853 17.974 2.60264C18.7936 3.51674 19.3 4.66387 19.4209 5.87998C19.4247 5.92209 19.4368 5.96304 19.4567 6.00048C19.4765 6.03792 19.5037 6.07111 19.5365 6.09814C19.5694 6.12517 19.6073 6.1455 19.6482 6.15797C19.689 6.17044 19.7319 6.1748 19.7745 6.17079C19.8603 6.16269 19.9394 6.12157 19.9949 6.05628C20.0222 6.02377 20.0428 5.98625 20.0554 5.94585C20.068 5.90546 20.0724 5.86299 20.0684 5.8209C19.9394 4.46709 19.3782 3.18907 18.466 2.17206C17.5538 1.15504 16.338 0.451865 14.9948 0.164435C14.9725 0.159822 14.9497 0.157388 14.9269 0.157166C14.8466 0.157128 14.7692 0.186465 14.7094 0.239532C14.6497 0.2926 14.612 0.365647 14.6034 0.444612C14.5949 0.523578 14.6161 0.602882 14.6631 0.667262C14.7101 0.731642 14.7795 0.776548 14.858 0.793336V0.79061Z" fill="url(#paint3_linear_9950_25732)"/>
<path d="M6.69015 2.92461C6.76833 2.90932 6.8375 2.86844 6.88438 2.80981C6.93126 2.75119 6.95255 2.67897 6.94414 2.60702C6.93573 2.53507 6.89822 2.46847 6.83883 2.42001C6.77943 2.37155 6.70233 2.34465 6.62235 2.34448C6.59956 2.34469 6.57685 2.34691 6.55455 2.35111C5.64496 2.52857 4.82156 2.96362 4.20389 3.59312C3.58621 4.22261 3.20641 5.01379 3.11961 5.85179C3.11559 5.89017 3.11999 5.9289 3.13257 5.96573C3.14515 6.00257 3.16565 6.0368 3.1929 6.06644C3.21997 6.09627 3.25338 6.12088 3.29115 6.13881C3.32892 6.15675 3.37029 6.16765 3.4128 6.17086C3.45526 6.17463 3.49812 6.17073 3.5389 6.1594C3.57968 6.14808 3.61758 6.12954 3.65039 6.10488C3.68319 6.08021 3.71027 6.0499 3.73003 6.0157C3.7498 5.98151 3.76187 5.94411 3.76555 5.90566C3.84384 5.19349 4.16874 4.52186 4.69391 3.98655C5.21908 3.45124 5.9177 3.0796 6.69015 2.92461Z" fill="url(#paint4_linear_9950_25732)"/>
<path d="M6.14246 0.793336C6.22084 0.776565 6.29019 0.731729 6.3372 0.667445C6.3842 0.603161 6.40554 0.523962 6.39711 0.445062C6.38867 0.366161 6.35107 0.293127 6.29152 0.239987C6.23197 0.186847 6.15468 0.157351 6.07448 0.157166C6.05163 0.157335 6.02886 0.159769 6.0065 0.164435C4.6631 0.451865 3.44711 1.15504 2.53475 2.17206C1.62238 3.18907 1.06106 4.46709 0.932111 5.8209C0.928079 5.86299 0.932495 5.90545 0.945107 5.94585C0.957719 5.98624 0.978277 6.02377 1.0056 6.05628C1.03274 6.08899 1.06623 6.11598 1.1041 6.13565C1.14197 6.15532 1.18344 6.16727 1.22607 6.17079C1.26861 6.1748 1.31154 6.17044 1.35237 6.15797C1.39321 6.1455 1.43115 6.12517 1.46402 6.09814C1.49689 6.07111 1.52403 6.03792 1.54389 6.00048C1.56375 5.96304 1.57593 5.92209 1.57973 5.87998C1.70125 4.66453 2.20791 3.51817 3.02734 2.60464C3.84678 1.69112 4.93707 1.05716 6.14246 0.793336Z" fill="url(#paint5_linear_9950_25732)"/>
<defs>
<linearGradient id="paint0_linear_9950_25732" x1="13.3428" y1="12.9223" x2="9.58012" y2="18.9652" gradientUnits="userSpaceOnUse">
<stop stop-color="#FF94A6"/>
<stop offset="0.32" stop-color="#E03DC1"/>
<stop offset="1" stop-color="#8247E5"/>
</linearGradient>
<linearGradient id="paint1_linear_9950_25732" x1="15.2131" y1="6.05261" x2="7.65068" y2="16.8727" gradientUnits="userSpaceOnUse">
<stop stop-color="#FF94A6"/>
<stop offset="0.32" stop-color="#E03DC1"/>
<stop offset="1" stop-color="#8247E5"/>
</linearGradient>
<linearGradient id="paint2_linear_9950_25732" x1="21.4552" y1="0.96953" x2="3.57865" y2="14.1198" gradientUnits="userSpaceOnUse">
<stop stop-color="#FF94A6"/>
<stop offset="0.32" stop-color="#E03DC1"/>
<stop offset="1" stop-color="#8247E5"/>
</linearGradient>
<linearGradient id="paint3_linear_9950_25732" x1="21.4754" y1="0.443443" x2="2.42967" y2="13.2194" gradientUnits="userSpaceOnUse">
<stop stop-color="#FF94A6"/>
<stop offset="0.32" stop-color="#E03DC1"/>
<stop offset="1" stop-color="#8247E5"/>
</linearGradient>
<linearGradient id="paint4_linear_9950_25732" x1="18.3693" y1="-3.90602" x2="0.463719" y2="9.234" gradientUnits="userSpaceOnUse">
<stop stop-color="#FF94A6"/>
<stop offset="0.32" stop-color="#E03DC1"/>
<stop offset="1" stop-color="#8247E5"/>
</linearGradient>
<linearGradient id="paint5_linear_9950_25732" x1="17.2751" y1="-6.0255" x2="-1.76369" y2="6.74782" gradientUnits="userSpaceOnUse">
<stop stop-color="#FF94A6"/>
<stop offset="0.32" stop-color="#E03DC1"/>
<stop offset="1" stop-color="#8247E5"/>
</linearGradient>
</defs>
</svg>
