<svg width="14" height="13" viewBox="0 0 14 13" fill="none" xmlns="http://www.w3.org/2000/svg">
<g clip-path="url(#clip0_11339_39902)">
<path d="M6.1875 6.09375C6.74994 6.09375 7.29975 5.92697 7.7674 5.61449C8.23506 5.30202 8.59955 4.85788 8.81478 4.33826C9.03002 3.81863 9.08634 3.24685 8.97661 2.69521C8.86688 2.14358 8.59604 1.63687 8.19834 1.23917C7.80063 0.841461 7.29392 0.57062 6.74229 0.460893C6.19065 0.351166 5.61887 0.407482 5.09924 0.622719C4.57962 0.837956 4.13548 1.20245 3.82301 1.6701C3.51053 2.13775 3.34375 2.68756 3.34375 3.25C3.34461 4.00395 3.6445 4.72677 4.17762 5.25989C4.71074 5.79301 5.43355 6.09289 6.1875 6.09375ZM6.1875 1.21875C6.58924 1.21875 6.98196 1.33788 7.316 1.56108C7.65004 1.78428 7.91039 2.10151 8.06413 2.47268C8.21787 2.84384 8.2581 3.25225 8.17972 3.64628C8.10134 4.0403 7.90789 4.40224 7.62381 4.68631C7.33974 4.97039 6.9778 5.16385 6.58378 5.24222C6.18975 5.3206 5.78134 5.28037 5.41017 5.12663C5.03901 4.97289 4.72177 4.71254 4.49858 4.3785C4.27538 4.04447 4.15625 3.65174 4.15625 3.25C4.1569 2.71148 4.37111 2.1952 4.7519 1.8144C5.1327 1.43361 5.64898 1.2194 6.1875 1.21875Z" fill="#8B5CF6" stroke="#8B5CF6" stroke-width="0.2"/>
<path d="M6.1875 6.90625C4.78732 6.90786 3.44495 7.4648 2.45487 8.45487C1.4648 9.44495 0.907863 10.7873 0.90625 12.1875C0.90625 12.2952 0.949051 12.3986 1.02524 12.4748C1.10142 12.5509 1.20476 12.5938 1.3125 12.5938H11.0625C11.1702 12.5938 11.2736 12.5509 11.3498 12.4748C11.4259 12.3986 11.4688 12.2952 11.4688 12.1875C11.4671 10.7873 10.9102 9.44495 9.92013 8.45487C8.93005 7.4648 7.58768 6.90786 6.1875 6.90625ZM1.73703 11.7812C1.83781 10.6705 2.35028 9.63764 3.17376 8.88549C3.99724 8.13334 5.07222 7.7163 6.1875 7.7163C7.30278 7.7163 8.37776 8.13334 9.20124 8.88549C10.0247 9.63764 10.5372 10.6705 10.638 11.7812H1.73703Z" fill="#8B5CF6" stroke="#8B5CF6" stroke-width="0.2"/>
<path d="M12.6875 5.6875H11.4688V4.46875C11.4688 4.36101 11.4259 4.25767 11.3498 4.18149C11.2736 4.1053 11.1702 4.0625 11.0625 4.0625C10.9548 4.0625 10.8514 4.1053 10.7752 4.18149C10.6991 4.25767 10.6562 4.36101 10.6562 4.46875V5.6875H9.4375C9.32976 5.6875 9.22642 5.7303 9.15024 5.80649C9.07405 5.88267 9.03125 5.98601 9.03125 6.09375C9.03125 6.20149 9.07405 6.30483 9.15024 6.38101C9.22642 6.4572 9.32976 6.5 9.4375 6.5H10.6562V7.71875C10.6562 7.82649 10.6991 7.92983 10.7752 8.00601C10.8514 8.0822 10.9548 8.125 11.0625 8.125C11.1702 8.125 11.2736 8.0822 11.3498 8.00601C11.4259 7.92983 11.4688 7.82649 11.4688 7.71875V6.5H12.6875C12.7952 6.5 12.8986 6.4572 12.9748 6.38101C13.0509 6.30483 13.0938 6.20149 13.0938 6.09375C13.0938 5.98601 13.0509 5.88267 12.9748 5.80649C12.8986 5.7303 12.7952 5.6875 12.6875 5.6875Z" fill="#8B5CF6"/>
</g>
<defs>
<clipPath id="clip0_11339_39902">
<rect width="13" height="13" fill="white" transform="translate(0.5)"/>
</clipPath>
</defs>
</svg>
