<?xml version="1.0" encoding="utf-8"?>
<!-- Generator: Adobe Illustrator 27.5.0, SVG Export Plug-In . SVG Version: 6.00 Build 0)  -->
<svg version="1.1" id="Layer_1" xmlns="http://www.w3.org/2000/svg" xmlns:xlink="http://www.w3.org/1999/xlink" x="0px" y="0px"
	 viewBox="0 0 23 18" style="enable-background:new 0 0 23 18;" xml:space="preserve">
<style type="text/css">
	.st0{fill:#8B5CF6;}
</style>
<path class="st0" d="M21.1,10.8c-0.3-0.3-0.7-0.5-1-0.7c-0.4-0.2-0.8-0.4-1.2-0.5c1-0.7,1.6-1.8,1.6-3.1c0-2.1-1.7-3.8-3.8-3.8
	c-0.4,0-0.8,0.1-1.1,0.2C14.1,3.4,13,4.8,13,6.5c0,1.2,0.6,2.3,1.5,3c-0.4,0.1-0.8,0.3-1.2,0.5c-0.3-0.2-0.6-0.4-0.9-0.5
	c-0.6-0.3-1.2-0.5-1.8-0.7c1.2-0.8,2-2.2,2-3.7c0-2.5-2-4.5-4.5-4.5S3.6,2.5,3.6,5c0,1.6,0.8,3,2.1,3.8C5.2,9,4.6,9.2,4.1,9.4
	c-0.4,0.2-0.9,0.5-1.2,0.8c-1.6,1.2-2.1,3.2-2.1,5c0,1.3,1,2.3,2.3,2.3h9.7c0,0,0,0,0,0h7.9c1.2,0,2.2-1,2.2-2.2
	C22.9,13.7,22.5,11.9,21.1,10.8z M16.1,4.3c0.2-0.1,0.4-0.1,0.7-0.1c1.3,0,2.3,1,2.3,2.3s-1,2.3-2.3,2.3c-0.2,0-0.5,0-0.7-0.1
	c-0.9-0.3-1.6-1.1-1.6-2.2S15.2,4.6,16.1,4.3z M8.1,2c1.7,0,3,1.4,3,3c0,1.7-1.4,3-3,3c-1.7,0-3-1.4-3-3C5.1,3.4,6.5,2,8.1,2z
	 M2.2,15.2c0-1.6,0.4-3,1.5-3.8c0.3-0.2,0.7-0.4,1-0.6c1.1-0.5,2.3-0.8,3.5-0.8c1.2,0,2.4,0.3,3.5,0.8c0.4,0.2,0.7,0.4,1,0.6
	c1.1,0.8,1.5,2.2,1.5,3.8c0,0.5-0.4,0.8-0.8,0.8H3.1C2.6,16,2.2,15.6,2.2,15.2z M20.7,16h-5c0.1-0.3,0.2-0.5,0.2-0.8
	c0-1.4-0.3-2.9-1.2-4.1c0.6-0.2,1.3-0.3,2-0.3c1,0,2,0.2,2.8,0.7c0.3,0.2,0.6,0.3,0.8,0.5c0.9,0.7,1.2,1.9,1.2,3.3
	C21.4,15.7,21.1,16,20.7,16z"/>
</svg>
