<svg width="36" height="41" viewBox="0 0 36 41" fill="none" xmlns="http://www.w3.org/2000/svg">
<path d="M16 12.8789C16 13.9835 16.8954 14.8789 18 14.8789C19.1046 14.8789 20 13.9835 20 12.8789C20 11.7743 19.1046 10.8789 18 10.8789C16.8954 10.8789 16 11.7743 16 12.8789Z" fill="#D4D4D8"/>
<path d="M16 20.8789C16 21.9835 16.8954 22.8789 18 22.8789C19.1046 22.8789 20 21.9835 20 20.8789C20 19.7743 19.1046 18.8789 18 18.8789C16.8954 18.8789 16 19.7743 16 20.8789Z" fill="#D4D4D8"/>
<path d="M16 28.8789C16 29.9835 16.8954 30.8789 18 30.8789C19.1046 30.8789 20 29.9835 20 28.8789C20 27.7743 19.1046 26.8789 18 26.8789C16.8954 26.8789 16 27.7743 16 28.8789Z" fill="#D4D4D8"/>
</svg>
