<svg width="12" height="11" viewBox="0 0 12 11" fill="none" xmlns="http://www.w3.org/2000/svg">
<path d="M1.662 1.00004L9.77827 9.11616" stroke="#71717A" stroke-width="1.82" stroke-linecap="round"/>
<path fill-rule="evenodd" clip-rule="evenodd" d="M2.82227 1.50559C1.73195 2.14601 1 3.33096 1 4.68685V10.0565C1 10.6168 1.66898 10.9066 2.07772 10.5234L3.72457 8.9795C3.77881 8.92864 3.85037 8.90034 3.92472 8.90034H7.58358C8.33878 8.90034 9.04448 8.68842 9.64445 8.3208C9.61999 8.30095 9.59631 8.27964 9.57355 8.25687L2.82227 1.50559ZM10.9308 7.04878C11.3128 6.44075 11.5337 5.72128 11.5337 4.9502C11.5337 2.76859 9.76519 1.00005 7.58358 1.00005H4.89059L10.8605 6.96994C10.8857 6.99516 10.9091 7.02149 10.9308 7.04878Z" fill="#71717A"/>
</svg>
