<svg width="28" height="28" viewBox="0 0 28 28" fill="none" xmlns="http://www.w3.org/2000/svg">
<path d="M3.66406 2.625L24.3359 25.375" stroke="#8B5CF6" stroke-width="2" stroke-linecap="round" stroke-linejoin="round"/>
<path d="M20.5078 21.1641C18.1562 23.8547 15.1703 24.9922 14.2734 25.2875C14.097 25.3528 13.903 25.3528 13.7266 25.2875C12.1734 24.7734 4.375 21.7328 4.375 12.5453V6.125C4.375 5.89294 4.46719 5.67038 4.63128 5.50628C4.79538 5.34219 5.01794 5.25 5.25 5.25H6.04844" stroke="#8B5CF6" stroke-width="2" stroke-linecap="round" stroke-linejoin="round"/>
<path d="M10.7734 5.25H22.75C22.9821 5.25 23.2046 5.34219 23.3687 5.50628C23.5328 5.67038 23.625 5.89294 23.625 6.125V12.5453C23.625 14.7437 23.1766 16.5812 22.4766 18.1234" stroke="#8B5CF6" stroke-width="2" stroke-linecap="round" stroke-linejoin="round"/>
</svg>
