<svg width="36" height="24" viewBox="0 0 36 24" fill="none" xmlns="http://www.w3.org/2000/svg">
<rect y="0.800049" width="35.2" height="22.4" rx="8" fill="#F5F2FF"/>
<path d="M12.5055 15.944C12.0703 15.944 11.6559 15.8672 11.2623 15.7136C10.8687 15.5568 10.5199 15.3264 10.2159 15.0224C9.91507 14.7184 9.67667 14.3424 9.50067 13.8944C9.32787 13.4464 9.24147 12.9296 9.24147 12.344C9.24147 11.5792 9.38707 10.9296 9.67827 10.3952C9.97267 9.85765 10.3663 9.44805 10.8591 9.16645C11.3551 8.88485 11.9039 8.74405 12.5055 8.74405C13.3951 8.74405 14.0943 8.95045 14.6031 9.36325C15.1119 9.77605 15.4527 10.36 15.6255 11.1152L14.2911 11.3072C14.1663 10.904 13.9615 10.5824 13.6767 10.3424C13.3951 10.0992 13.0335 9.97605 12.5919 9.97285C12.1535 9.96645 11.7887 10.0608 11.4975 10.256C11.2063 10.4512 10.9871 10.728 10.8399 11.0864C10.6959 11.4448 10.6239 11.864 10.6239 12.344C10.6239 12.824 10.6959 13.24 10.8399 13.592C10.9871 13.944 11.2063 14.2176 11.4975 14.4128C11.7887 14.608 12.1535 14.7088 12.5919 14.7152C12.8895 14.7216 13.1583 14.6704 13.3983 14.5616C13.6415 14.4528 13.8463 14.2816 14.0127 14.048C14.1791 13.8144 14.2975 13.5152 14.3679 13.1504H13.2735V12.1424H15.7599C15.7663 12.184 15.7711 12.2576 15.7743 12.3632C15.7775 12.4688 15.7791 12.5296 15.7791 12.5456C15.7791 13.208 15.6447 13.7952 15.3759 14.3072C15.1071 14.8192 14.7279 15.2208 14.2383 15.512C13.7487 15.8 13.1711 15.944 12.5055 15.944ZM17.5091 15.8V8.88805H18.8147V15.8H17.5091ZM20.9257 15.8V8.88805H25.1497V10.1936H22.2313V11.6912H24.5737V12.9968H22.2313V15.8H20.9257Z" fill="#494D5F"/>
</svg>
