<svg width="12" height="16" viewBox="0 0 12 16" fill="none" xmlns="http://www.w3.org/2000/svg">
<path d="M11.0653 6.62695H10.4122V4.35677C10.4122 1.95443 8.43277 0 6 0C3.56723 0 1.58745 1.95443 1.58745 4.35677V6.62695H0.934667C0.418375 6.62695 0 7.04004 0 7.54981V15.0772C0 15.5869 0.418375 16 0.934667 16H11.0653C11.5816 16 12 15.5869 12 15.0772V7.54981C12 7.04004 11.5816 6.62695 11.0653 6.62695ZM8.83796 6.62695H3.16204V4.35677C3.16204 2.81152 4.43497 1.55469 6 1.55469C7.56503 1.55469 8.83796 2.81152 8.83796 4.35677V6.62695Z" fill="#9E9EA9"/>
</svg>
