<svg width="21" height="22" viewBox="0 0 21 22" fill="none" xmlns="http://www.w3.org/2000/svg">
<path d="M20.9079 2.52822L16.0638 19.9563C15.9831 20.2515 15.8146 20.5142 15.5814 20.7087C15.3481 20.9033 15.0615 21.0203 14.7604 21.0438H14.6309C14.3523 21.0432 14.0796 20.9628 13.8441 20.8119C13.6086 20.6609 13.4199 20.4456 13.2997 20.1907L9.99947 13.122C9.96707 13.051 9.95679 12.9717 9.97 12.8946C9.98322 12.8176 10.0193 12.7464 10.0734 12.6907L14.8158 7.88135C14.8901 7.81313 14.9499 7.73032 14.9916 7.63796C15.0333 7.54559 15.0561 7.44559 15.0586 7.34402C15.0611 7.24245 15.0431 7.14143 15.0059 7.0471C14.9688 6.95276 14.913 6.86707 14.8422 6.79523C14.7714 6.72339 14.6869 6.66689 14.5938 6.62917C14.5008 6.59145 14.4012 6.57329 14.3011 6.57579C14.2009 6.57829 14.1023 6.6014 14.0112 6.64372C13.9201 6.68604 13.8385 6.74668 13.7712 6.82197L9.0288 11.6407C8.97386 11.6956 8.90372 11.7322 8.82773 11.7456C8.75175 11.759 8.67354 11.7486 8.60355 11.7157L1.67021 8.3876C1.39884 8.25761 1.17102 8.04979 1.01492 7.78985C0.858828 7.52991 0.781318 7.22925 0.791986 6.9251C0.808349 6.61193 0.921689 6.31198 1.11588 6.06791C1.31007 5.82385 1.57521 5.64812 1.87359 5.56572L19.096 0.643846C19.3972 0.556606 19.718 0.568609 20.0121 0.678125C20.3061 0.78764 20.5583 0.989013 20.7323 1.25322C20.849 1.44097 20.925 1.65175 20.9553 1.87157C20.9856 2.09138 20.9694 2.31522 20.9079 2.52822Z" fill="#8B5CF6"/>
</svg>
