<svg width="38" height="34" viewBox="0 0 38 34" fill="none" xmlns="http://www.w3.org/2000/svg">
<path d="M33.4922 4.39459H28.4743L26.0106 0.699084C25.8795 0.49703 25.6996 0.331328 25.4874 0.21733C25.2752 0.103331 25.0377 0.044723 24.7969 0.0469354H13.2031C12.9623 0.044723 12.7248 0.103331 12.5126 0.21733C12.3005 0.331328 12.1205 0.49703 11.9894 0.699084L9.52573 4.39459H4.50781C3.35621 4.39936 2.25314 4.85895 1.43882 5.67326C0.624511 6.48757 0.164925 7.59065 0.160156 8.74225V29.0313C0.164925 30.1829 0.624511 31.286 1.43882 32.1003C2.25314 32.9146 3.35621 33.3742 4.50781 33.379H33.4922C34.6438 33.3742 35.7469 32.9146 36.5612 32.1003C37.3755 31.286 37.8351 30.1829 37.8398 29.0313V8.74225C37.8351 7.59065 37.3755 6.48757 36.5612 5.67326C35.7469 4.85895 34.6438 4.39936 33.4922 4.39459ZM25.5215 18.1622C25.5215 19.452 25.139 20.7129 24.4224 21.7853C23.7058 22.8578 22.6873 23.6936 21.4957 24.1872C20.304 24.6808 18.9928 24.81 17.7277 24.5583C16.4627 24.3067 15.3007 23.6856 14.3886 22.7736C13.4766 21.8615 12.8555 20.6995 12.6038 19.4344C12.3522 18.1694 12.4813 16.8582 12.9749 15.6665C13.4685 14.4749 14.3044 13.4563 15.3769 12.7398C16.4493 12.0232 17.7102 11.6407 19 11.6407C20.7296 11.6407 22.3884 12.3278 23.6114 13.5508C24.8344 14.7738 25.5215 16.4326 25.5215 18.1622Z" fill="#82828A"/>
</svg>
