<svg width="27" height="16" viewBox="0 0 27 16" fill="none" xmlns="http://www.w3.org/2000/svg">
<path fill-rule="evenodd" clip-rule="evenodd" d="M24.239 4.45979L21.9029 5.82305V10.1769L24.239 11.5402V4.45979ZM24.7803 1.99531C24.9091 1.91515 25.0569 1.87276 25.2076 1.87276C25.3584 1.87276 25.5062 1.91515 25.635 1.99531C25.7659 2.0701 25.8748 2.17968 25.95 2.31251C26.0252 2.44533 26.064 2.59648 26.0623 2.75V13.25C26.064 13.4035 26.0252 13.5547 25.95 13.6875C25.8748 13.8203 25.7659 13.9299 25.635 14.0047C25.5053 14.0826 25.3579 14.1241 25.2076 14.125C25.0575 14.1226 24.9105 14.0812 24.7803 14.0047L20.5069 11.5109C20.3759 11.4335 20.2672 11.3218 20.1922 11.1873C20.1171 11.0527 20.0782 10.9002 20.0796 10.7453V5.25468C20.0782 5.09976 20.1171 4.94725 20.1922 4.81273C20.2672 4.67821 20.3759 4.56652 20.5069 4.48906L24.7803 1.99531ZM18.9884 3.36313C18.6905 1.45668 17.0767 0 15.1306 0H4.38609C2.22827 0 0.479004 1.79086 0.479004 4V12C0.479004 14.2091 2.22827 16 4.38609 16H15.1306C17.0767 16 18.6905 14.5433 18.9884 12.6369C19.0208 12.4295 19.0377 12.2167 19.0377 12V4C19.0377 3.78325 19.0208 3.57053 18.9884 3.36313ZM15.1306 1.86667H4.38609C3.23525 1.86667 2.30231 2.82179 2.30231 4V12C2.30231 13.1782 3.23525 14.1333 4.38609 14.1333H15.1306C16.2814 14.1333 17.2144 13.1782 17.2144 12V4C17.2144 2.82179 16.2814 1.86667 15.1306 1.86667Z" fill="black"/>
</svg>
