<svg width="16" height="16" viewBox="0 0 16 16" fill="rgb(139 92 246)" xmlns="http://www.w3.org/2000/svg">
<path d="M11.3537 6V5.33523L12.907 3.89702C13.0391 3.76918 13.1499 3.65412 13.2393 3.55185C13.3303 3.44957 13.3991 3.34943 13.446 3.25142C13.4929 3.15199 13.5163 3.04474 13.5163 2.92969C13.5163 2.80185 13.4872 2.69176 13.429 2.59943C13.3707 2.50568 13.2912 2.43395 13.1903 2.38423C13.0895 2.3331 12.9751 2.30753 12.8473 2.30753C12.7138 2.30753 12.5973 2.33452 12.4979 2.38849C12.3984 2.44247 12.3217 2.51989 12.2678 2.62074C12.2138 2.72159 12.1868 2.84162 12.1868 2.98082H11.3111C11.3111 2.69531 11.3757 2.44744 11.505 2.23722C11.6342 2.02699 11.8153 1.86435 12.0483 1.74929C12.2813 1.63423 12.5497 1.5767 12.8537 1.5767C13.1662 1.5767 13.4382 1.6321 13.6697 1.7429C13.9027 1.85227 14.0838 2.00426 14.2131 2.19886C14.3423 2.39347 14.407 2.61648 14.407 2.8679C14.407 3.03267 14.3743 3.19531 14.3089 3.35582C14.245 3.51634 14.1307 3.6946 13.9659 3.89062C13.8011 4.08523 13.5689 4.31889 13.2692 4.59162L12.6321 5.21591V5.24574H14.4645V6H11.3537Z" fill="rgb(139 92 246)"/>
<path d="M5.03924 4.27273L6.96112 7.46875H7.0293L8.95969 4.27273H10.7623L8.07333 8.63636L10.8049 13H8.97248L7.0293 9.82528H6.96112L5.01793 13H3.19407L5.95117 8.63636L3.22816 4.27273H5.03924Z" fill="rgb(139 92 246)"/>
</svg>

