<svg width="16" height="16" fill="rgb(139 92 246)" viewBox="0 0 16 16" xmlns="http://www.w3.org/2000/svg">
<path d="M11.3537 14.5V13.8352L12.907 12.397C13.0391 12.2692 13.1499 12.1541 13.2393 12.0518C13.3303 11.9496 13.3991 11.8494 13.446 11.7514C13.4929 11.652 13.5163 11.5447 13.5163 11.4297C13.5163 11.3018 13.4872 11.1918 13.429 11.0994C13.3707 11.0057 13.2912 10.9339 13.1903 10.8842C13.0895 10.8331 12.9751 10.8075 12.8473 10.8075C12.7138 10.8075 12.5973 10.8345 12.4979 10.8885C12.3984 10.9425 12.3217 11.0199 12.2678 11.1207C12.2138 11.2216 12.1868 11.3416 12.1868 11.4808H11.3111C11.3111 11.1953 11.3757 10.9474 11.505 10.7372C11.6342 10.527 11.8153 10.3643 12.0483 10.2493C12.2813 10.1342 12.5497 10.0767 12.8537 10.0767C13.1662 10.0767 13.4382 10.1321 13.6697 10.2429C13.9027 10.3523 14.0838 10.5043 14.2131 10.6989C14.3423 10.8935 14.407 11.1165 14.407 11.3679C14.407 11.5327 14.3743 11.6953 14.3089 11.8558C14.245 12.0163 14.1307 12.1946 13.9659 12.3906C13.8011 12.5852 13.5689 12.8189 13.2692 13.0916L12.6321 13.7159V13.7457H14.4645V14.5H11.3537Z" fill="rgb(139 92 246)"/>
<path d="M5.03924 4.27273L6.96112 7.46875H7.0293L8.95969 4.27273H10.7623L8.07333 8.63636L10.8049 13H8.97248L7.0293 9.82528H6.96112L5.01793 13H3.19407L5.95117 8.63636L3.22816 4.27273H5.03924Z" fill="rgb(139 92 246)"/>
</svg>
