<svg width="142" height="142" viewBox="0 0 142 142" fill="none" xmlns="http://www.w3.org/2000/svg">
<g filter="url(#filter0_i_1_2)">
<path d="M142 71C142 110.212 110.212 142 71 142C31.7878 142 0 110.212 0 71C0 31.7878 31.7878 0 71 0C110.212 0 142 31.7878 142 71Z" fill="url(#paint0_linear_1_2)"/>
</g>
<path d="M40.5303 62.8159C41.4337 64.7382 43.6696 68.5378 43.6696 68.5378L69.5182 26L44.2907 43.5367C42.7875 44.535 41.5542 45.8863 40.6996 47.4713C39.5507 49.8624 38.9402 52.4745 38.9109 55.125C38.8817 57.7754 39.4343 60.4002 40.5303 62.8159Z" fill="white"/>
<path d="M30.2879 76.8229C30.5727 80.892 31.7276 84.853 33.6751 88.442C35.6226 92.03 38.3179 95.163 41.5804 97.631L69.4842 117C69.4842 117 52.026 91.954 37.3005 67.0315C35.8097 64.3985 34.8075 61.5196 34.3419 58.5329C34.1358 57.1804 34.1358 55.8048 34.3419 54.4523C33.958 55.1605 33.2127 56.6106 33.2127 56.6106C31.7195 59.642 30.7027 62.8836 30.1976 66.2221C29.9068 69.7512 29.937 73.2992 30.2879 76.8229Z" fill="white"/>
<path d="M101.476 80.184C100.573 78.262 98.337 74.4622 98.337 74.4622L72.4881 117L97.716 99.475C99.219 98.476 100.452 97.125 101.307 95.54C102.457 93.147 103.069 90.533 103.098 87.881C103.127 85.228 102.574 82.601 101.476 80.184Z" fill="white"/>
<path d="M111.718 66.1771C111.433 62.1082 110.279 58.1468 108.331 54.5582C106.384 50.9696 103.688 47.8366 100.426 45.3691L72.5219 26C72.5219 26 89.969 51.0461 104.706 75.9685C106.192 78.602 107.191 81.481 107.653 84.467C107.859 85.82 107.859 87.195 107.653 88.548C108.037 87.84 108.782 86.389 108.782 86.389C110.275 83.358 111.292 80.116 111.797 76.7779C112.092 73.2491 112.065 69.7011 111.718 66.1771Z" fill="white"/>
<path d="M40.6996 47.4713C41.5542 45.8863 42.7875 44.535 44.2907 43.5367L69.5182 26L43.6695 68.5491C43.6695 68.5491 41.411 64.7495 40.5302 62.8272C39.4326 60.41 38.879 57.7831 38.9083 55.1306C38.9375 52.478 39.549 49.8639 40.6996 47.4713ZM30.2879 76.8229C30.5727 80.892 31.7276 84.853 33.6751 88.442C35.6226 92.03 38.3179 95.163 41.5804 97.631L69.4842 117C69.4842 117 52.026 91.954 37.3005 67.0315C35.8097 64.3985 34.8075 61.5196 34.3419 58.5329C34.1358 57.1804 34.1358 55.8048 34.3419 54.4523C33.958 55.1605 33.2127 56.6106 33.2127 56.6106C31.7195 59.642 30.7027 62.8836 30.1976 66.2221C29.9068 69.7512 29.937 73.2992 30.2879 76.8229ZM101.431 80.195C100.527 78.273 98.291 74.4734 98.291 74.4734L72.4881 117L97.716 99.475C99.219 98.476 100.452 97.125 101.307 95.54C102.457 93.147 103.069 90.533 103.098 87.881C103.127 85.228 102.574 82.601 101.476 80.184L101.431 80.195ZM111.673 66.1884C111.388 62.1194 110.233 58.158 108.286 54.5694C106.338 50.9808 103.643 47.8479 100.381 45.3804L72.5219 26C72.5219 26 89.969 51.0461 104.706 75.9685C106.192 78.602 107.191 81.481 107.653 84.467C107.859 85.82 107.859 87.195 107.653 88.548C108.037 87.84 108.782 86.389 108.782 86.389C110.275 83.358 111.292 80.116 111.797 76.7779C112.092 73.2491 112.065 69.7011 111.718 66.1771L111.673 66.1884Z" fill="white"/>
<defs>
<filter id="filter0_i_1_2" x="0" y="0" width="142" height="146" filterUnits="userSpaceOnUse" color-interpolation-filters="sRGB">
<feFlood flood-opacity="0" result="BackgroundImageFix"/>
<feBlend mode="normal" in="SourceGraphic" in2="BackgroundImageFix" result="shape"/>
<feColorMatrix in="SourceAlpha" type="matrix" values="0 0 0 0 0 0 0 0 0 0 0 0 0 0 0 0 0 0 127 0" result="hardAlpha"/>
<feOffset dy="4"/>
<feGaussianBlur stdDeviation="13"/>
<feComposite in2="hardAlpha" operator="arithmetic" k2="-1" k3="1"/>
<feColorMatrix type="matrix" values="0 0 0 0 0 0 0 0 0 0 0 0 0 0 0 0 0 0 0.06 0"/>
<feBlend mode="normal" in2="shape" result="effect1_innerShadow_1_2"/>
</filter>
<linearGradient id="paint0_linear_1_2" x1="94.584" y1="158.83" x2="-43.4333" y2="-84.0994" gradientUnits="userSpaceOnUse">
<stop stop-color="#44BCF0"/>
<stop offset="0.378795" stop-color="#7298F8"/>
<stop offset="1" stop-color="#A099FF"/>
</linearGradient>
</defs>
</svg>
