<svg xmlns="http://www.w3.org/2000/svg" viewBox="0 0 73.02 65.2"><defs><style>.cls-1{fill:#ffde17;}.cls-2{fill:#010c07;}.cls-3{fill:#020b07;}</style></defs><title>Asset 4</title><g id="Layer_2" data-name="Layer 2"><g id="Layer_1-2" data-name="Layer 1"><path class="cls-1" d="M51.11,0H21.91a7.29,7.29,0,0,0-6.33,3.66L1,28.94a7.31,7.31,0,0,0,0,7.32l14.6,25.28a7.31,7.31,0,0,0,6.33,3.66h29.2a7.31,7.31,0,0,0,6.33-3.66L72,36.26a7.31,7.31,0,0,0,0-7.32L57.44,3.66A7.29,7.29,0,0,0,51.11,0Z"/><path class="cls-2" d="M59.58,42.91a2,2,0,0,1-.79.06c-2.25,0-4.49,0-6.73,0a2.31,2.31,0,0,0-1.3.37,24.82,24.82,0,0,1-8.5,3.57,26.08,26.08,0,0,1-16.32-1.58,23.63,23.63,0,0,1-3.74-2A1.89,1.89,0,0,0,21.05,43h-6.8a2,2,0,0,1-.79-.06c0-.25.2-.39.35-.55l2.86-3.14c.36-.39.35-.4,0-.79a11.36,11.36,0,0,1-3.36-8.76,11.64,11.64,0,0,1,19.18-8.3l.35.28,3.68-4c.69.6,1.23,1.29,1.83,1.92s1,1.11,1.51,1.65.41.43.86.06A11.88,11.88,0,0,1,45.19,19a11.62,11.62,0,0,1,14.45,9.63,11.41,11.41,0,0,1-3.15,9.72c-.57.62-.52.49,0,1.08l2.86,3.14A.56.56,0,0,1,59.58,42.91ZM48.14,22.38a7.86,7.86,0,1,0,0,15.71A8,8,0,0,0,56,30.3,7.85,7.85,0,0,0,48.14,22.38ZM17.06,30.25a7.84,7.84,0,1,0,8-7.89A7.84,7.84,0,0,0,17.06,30.25ZM27.84,42a22.83,22.83,0,0,0,17.34,0c-4.69-2.1-7.84-5.31-8.66-10.51C35.68,36.7,32.54,39.91,27.84,42Z"/><path class="cls-2" d="M52.23,30.25a4,4,0,0,1-4.12,4.09,4.12,4.12,0,1,1,4.12-4.09Z"/><path class="cls-3" d="M20.8,30.16A4.08,4.08,0,0,1,25,26.11a4.12,4.12,0,0,1-.21,8.23A4.05,4.05,0,0,1,20.8,30.16Z"/></g></g></svg>