<svg width="600" height="600" viewBox="0 0 600 600" fill="none" xmlns="http://www.w3.org/2000/svg">
<circle cx="300" cy="300" r="300" fill="#8B5CF6"/>
<path d="M276.86 286.438C272.365 293.996 202.247 295.266 163.994 273.828C125.741 252.39 144.326 186.841 183.125 169.629C221.925 152.417 281.355 278.881 276.86 286.438Z" fill="white"/>
<path d="M276.329 312.672C280.824 320.23 246.899 379.808 208.646 401.246C170.393 422.684 121.204 374.287 125.248 333.065C129.292 291.842 271.834 305.114 276.329 312.672Z" fill="white"/>
<path d="M299.469 326.234C308.46 326.234 344.651 384.543 344.651 427.418C344.651 470.294 276.878 487.446 242.122 463.435C207.366 439.425 290.479 326.233 299.469 326.234Z" fill="white"/>
<path d="M323.14 313.567C327.635 306.008 397.754 304.739 436.006 326.177C474.259 347.615 455.675 413.163 416.875 430.375C378.074 447.587 318.645 321.124 323.14 313.567Z" fill="white"/>
<path d="M323.671 287.328C319.176 279.77 353.101 220.192 391.354 198.753C429.608 177.315 478.796 225.713 474.753 266.935C470.709 308.158 328.166 294.886 323.671 287.328Z" fill="white"/>
<path d="M300.53 273.766C291.539 273.766 255.348 215.457 255.348 172.581C255.348 129.705 323.121 112.554 357.877 136.565C392.634 160.575 309.52 273.767 300.53 273.766Z" fill="white"/>
</svg>
